<?xml version="1.0" encoding="UTF-8" standalone="no"?>
<!-- Created with Inkscape (http://www.inkscape.org/) -->

<svg
   xmlns:dc="http://purl.org/dc/elements/1.1/"
   xmlns:cc="http://creativecommons.org/ns#"
   xmlns:rdf="http://www.w3.org/1999/02/22-rdf-syntax-ns#"
   xmlns:svg="http://www.w3.org/2000/svg"
   xmlns="http://www.w3.org/2000/svg"
   xmlns:sodipodi="http://sodipodi.sourceforge.net/DTD/sodipodi-0.dtd"
   xmlns:inkscape="http://www.inkscape.org/namespaces/inkscape"
   width="104.49561mm"
   height="104.49566mm"
   viewBox="0 0 104.49561 104.49566"
   version="1.1"
   id="svg8"
   inkscape:version="0.92.5 (2060ec1f9f, 2020-04-08)"
   sodipodi:docname="logo.svg">
  <defs
     id="defs2">
    <marker
       inkscape:isstock="true"
       style="overflow:visible"
       id="marker3420"
       refX="0"
       refY="0"
       orient="auto"
       inkscape:stockid="Arrow2Send">
      <path
         transform="matrix(-0.3,0,0,-0.3,0.69,0)"
         d="M 8.7185878,4.0337352 -2.2072895,0.01601326 8.7185884,-4.0017078 c -1.7454984,2.3720609 -1.7354408,5.6174519 -6e-7,8.035443 z"
         style="fill:#ffffff;fill-opacity:1;fill-rule:evenodd;stroke:#ffffff;stroke-width:0.625;stroke-linejoin:round;stroke-opacity:1"
         id="path3418"
         inkscape:connector-curvature="0" />
    </marker>
    <marker
       inkscape:stockid="Arrow2Lend"
       orient="auto"
       refY="0"
       refX="0"
       id="Arrow2Lend"
       style="overflow:visible"
       inkscape:isstock="true">
      <path
         id="path3123"
         style="fill:#ffffff;fill-opacity:1;fill-rule:evenodd;stroke:#ffffff;stroke-width:0.625;stroke-linejoin:round;stroke-opacity:1"
         d="M 8.7185878,4.0337352 -2.2072895,0.01601326 8.7185884,-4.0017078 c -1.7454984,2.3720609 -1.7354408,5.6174519 -6e-7,8.035443 z"
         transform="matrix(-1.1,0,0,-1.1,-1.1,0)"
         inkscape:connector-curvature="0" />
    </marker>
  </defs>
  <sodipodi:namedview
     id="base"
     pagecolor="#ffffff"
     bordercolor="#666666"
     borderopacity="1.0"
     inkscape:pageopacity="0.0"
     inkscape:pageshadow="2"
     inkscape:zoom="1.6"
     inkscape:cx="213.31325"
     inkscape:cy="174.1051"
     inkscape:document-units="mm"
     inkscape:current-layer="layer1"
     showgrid="false"
     inkscape:snap-global="false"
     inkscape:window-width="1920"
     inkscape:window-height="1007"
     inkscape:window-x="0"
     inkscape:window-y="0"
     inkscape:window-maximized="1"
     showguides="true"
     inkscape:guide-bbox="true">
    <sodipodi:guide
       position="1277.1689,-64.843166"
       orientation="0,1"
       id="guide952"
       inkscape:locked="false" />
  </sodipodi:namedview>
  <metadata
     id="metadata5">
    <rdf:RDF>
      <cc:Work
         rdf:about="">
        <dc:format>image/svg+xml</dc:format>
        <dc:type
           rdf:resource="http://purl.org/dc/dcmitype/StillImage" />
        <dc:title />
      </cc:Work>
    </rdf:RDF>
  </metadata>
  <g
     inkscape:label="Layer 1"
     inkscape:groupmode="layer"
     id="layer1"
     transform="translate(-25.866253,-13.379642)">
    <circle
       r="51.277378"
       cy="65.627464"
       cx="78.114067"
       id="circle988"
       style="opacity:1;fill:#cec6b3;fill-opacity:1;stroke:none;stroke-width:0.99999994;stroke-miterlimit:4;stroke-dasharray:none;stroke-dashoffset:0;stroke-opacity:1" />
    <path
       style="opacity:1;fill:#3e4a56;fill-opacity:1;stroke:none;stroke-width:0.99999994;stroke-miterlimit:4;stroke-dasharray:none;stroke-dashoffset:0;stroke-opacity:1"
       d="m 100.08103,24.212589 -5.278257,11.457478 c 0.91364,0.339561 1.81445,0.712751 2.70056,1.118796 2.678127,1.254666 5.207237,2.805443 7.540027,4.62331 l 8.49362,-6.005959 c -3.72906,-4.556537 -8.29675,-8.356266 -13.45595,-11.193625 z"
       id="path1072"
       inkscape:connector-curvature="0"
       inkscape:transform-center-x="-27.692332"
       inkscape:transform-center-y="-36.715708" />
    <path
       style="opacity:1;fill:#3e4a56;fill-opacity:1;stroke:none;stroke-width:0.99999994;stroke-miterlimit:4;stroke-dasharray:none;stroke-dashoffset:0;stroke-opacity:1"
       d="m 94.183063,21.502575 c -5.50916,-2.068933 -11.36359,-3.063558 -17.24692,-2.93013 l 1.35952,14.750366 c 3.40045,-0.239147 6.81756,-0.03815 10.16654,0.597993 z"
       id="path1070"
       inkscape:connector-curvature="0"
       inkscape:transform-center-x="-9.082057"
       inkscape:transform-center-y="-43.287386" />
    <path
       style="opacity:1;fill:#3e4a56;fill-opacity:1;stroke:none;stroke-width:0.99999994;stroke-miterlimit:4;stroke-dasharray:none;stroke-dashoffset:0;stroke-opacity:1"
       d="m 70.473093,19.171781 c -5.80254,0.9562 -11.36843,3.014152 -16.39729,6.062783 l 8.76341,12.392926 c 2.85972,-1.486161 5.8902,-2.617606 9.02417,-3.369221 z"
       id="path1066"
       inkscape:connector-curvature="0"
       inkscape:transform-center-x="13.507953"
       inkscape:transform-center-y="-41.128453" />
    <path
       style="opacity:1;fill:#3e4a56;fill-opacity:1;stroke:none;stroke-width:0.99999994;stroke-miterlimit:4;stroke-dasharray:none;stroke-dashoffset:0;stroke-opacity:1"
       d="m 48.772863,28.977327 c -4.55928,3.719978 -8.36396,8.27869 -11.20846,13.429818 l 12.43879,5.730332 c 2.11445,-2.673495 4.56528,-5.062761 7.29169,-7.108528 z"
       id="path1062"
       inkscape:connector-curvature="0"
       inkscape:transform-center-x="29.047903"
       inkscape:transform-center-y="-30.970687" />
    <path
       style="opacity:1;fill:#3e4a56;fill-opacity:1;stroke:none;stroke-width:0.99999994;stroke-miterlimit:4;stroke-dasharray:none;stroke-dashoffset:0;stroke-opacity:1"
       d="m 34.857423,48.306507 c -2.07817,5.50655 -3.08229,11.3602 -2.9581,17.24453 l 10.33658,-0.95242 c 0.59571,-2.89858 1.51451,-5.72125 2.73916,-8.41511 0.42109,-0.87969 0.87451,-1.74353 1.35938,-2.58974 z"
       id="path1060"
       inkscape:connector-curvature="0"
       inkscape:transform-center-x="37.365794"
       inkscape:transform-center-y="-12.599317" />
    <path
       style="opacity:1;fill:#3e4a56;fill-opacity:1;stroke:none;stroke-width:0.99999994;stroke-miterlimit:4;stroke-dasharray:none;stroke-dashoffset:0;stroke-opacity:1"
       d="m 41.434533,71.190717 -8.98416,0.82801 c 0.96265,5.81187 3.0307,11.38528 6.09214,16.41838 l 4.81831,-3.40714 c -1.45743,-4.46242 -2.10968,-9.14845 -1.92629,-13.83925 z"
       id="path1058"
       inkscape:connector-curvature="0"
       inkscape:transform-center-x="38.571948"
       inkscape:transform-center-y="10.285823" />
    <path
       style="opacity:1;fill:#3e4a56;fill-opacity:1;stroke:none;stroke-width:0.99999994;stroke-miterlimit:4;stroke-dasharray:none;stroke-dashoffset:0;stroke-opacity:1"
       d="m 45.670963,90.393927 -3.52122,2.82356 c 3.9971,4.32327 8.78567,7.840533 14.10666,10.361523 l 0.50675,-1.30139 c -4.47949,-3.151393 -8.25648,-7.197893 -11.09219,-11.883693 z"
       id="path981"
       inkscape:connector-curvature="0"
       inkscape:transform-center-x="27.021098"
       inkscape:transform-center-y="27.458378" />
    <g
       id="g970"
       transform="rotate(13.348352,86.285162,66.137723)"
       inkscape:transform-center-x="-23.219348"
       inkscape:transform-center-y="-29.496745">
      <path
         sodipodi:nodetypes="ccccccccccccc"
         inkscape:connector-curvature="0"
         id="rect994"
         d="m 54.730913,48.525616 45.02001,43.585441 c -0.82733,1.23666 -1.29047,2.68089 -1.33671,4.16805 -0.1318,4.383093 3.314517,8.043143 7.697627,8.175003 4.3832,0.13191 8.04336,-3.31447 8.17524,-7.697673 0.13189,-4.38328 -3.31464,-8.04352 -7.69793,-8.17523 -1.54351,-0.0443 -3.06637,0.36291 -4.38217,1.17109 z m 51.775857,42.795581 c 2.87009,0.0862 5.12686,2.48277 5.04052,5.35285 -0.0863,2.87008 -2.48298,5.126743 -5.35306,5.040293 -2.86992,-0.0864 -5.12635,-2.482943 -5.04005,-5.352843 0.0863,-2.86989 2.48267,-5.12648 5.35259,-5.0403 z"
         style="opacity:1;fill:#3e4a56;fill-opacity:1;stroke:none;stroke-width:0.99999994;stroke-miterlimit:4;stroke-dasharray:none;stroke-dashoffset:0;stroke-opacity:1" />
      <path
         sodipodi:nodetypes="ccccccccccccccccccccccccccccc"
         inkscape:connector-curvature="0"
         id="circle1021"
         d="m 118.77098,62.259797 c -1.7973,0.64157 -3.01303,2.34768 -3.01439,4.27535 0.002,2.00565 1.31824,3.77292 3.2395,4.34856 -0.57394,5.27815 -2.16043,10.44309 -4.77473,15.09959 -1.13979,2.1123 -2.4788,4.1072 -3.98427,5.96609 0.55874,0.48394 1.03238,1.05815 1.40123,1.69873 5.30931,-6.4072 8.61631,-14.39851 9.53593,-22.6557 2.13123,-0.41782 3.66879,-2.28547 3.66946,-4.45727 -0.003,-2.02104 -1.33616,-3.78053 -3.24462,-4.34865 -1.0288,-0.31511 -2.12045,-0.16786 -2.82811,0.0733 z m 1.52917,1.45293 c 1.55879,0 2.82243,1.26364 2.82243,2.82242 0,1.55879 -1.26364,2.82243 -2.82243,2.82243 -1.55877,-1e-5 -2.82242,-1.26365 -2.82242,-2.82243 0,-1.55877 1.26365,-2.82241 2.82242,-2.82242 z m -19.83838,36.960843 c -5.435393,3.48379 -11.671033,5.70598 -18.092603,6.27269 -0.62797,-1.83657 -2.35324,-3.07143 -4.29421,-3.07356 -2.5121,0.38668 -3.9038,1.48954 -4.45669,3.73941 -0.14347,0.59946 -0.13297,1.14004 0.0494,1.89033 0.49246,2.00734 2.2983,3.45513 4.40724,3.45739 2.24118,-0.002 4.14633,-1.63739 4.48722,-3.85249 6.90364,-0.67542 13.63817,-3.04048 19.448353,-6.82955 -0.60334,-0.44321 -1.12704,-0.98566 -1.54876,-1.60422 z m -22.386813,4.92027 c 1.55877,1e-5 2.82242,1.26365 2.82242,2.82242 0,1.55878 -1.26365,2.82242 -2.82242,2.82243 -1.55878,-1e-5 -2.82243,-1.26365 -2.82243,-2.82243 0,-1.55878 1.26365,-2.82242 2.82243,-2.82242 z"
         style="color:#000000;font-style:normal;font-variant:normal;font-weight:normal;font-stretch:normal;font-size:medium;line-height:normal;font-family:sans-serif;font-variant-ligatures:normal;font-variant-position:normal;font-variant-caps:normal;font-variant-numeric:normal;font-variant-alternates:normal;font-feature-settings:normal;text-indent:0;text-align:start;text-decoration:none;text-decoration-line:none;text-decoration-style:solid;text-decoration-color:#000000;letter-spacing:normal;word-spacing:normal;text-transform:none;writing-mode:lr-tb;direction:ltr;text-orientation:mixed;dominant-baseline:auto;baseline-shift:baseline;text-anchor:start;white-space:normal;shape-padding:0;clip-rule:nonzero;display:inline;overflow:visible;visibility:visible;opacity:1;isolation:auto;mix-blend-mode:normal;color-interpolation:sRGB;color-interpolation-filters:linearRGB;solid-color:#000000;solid-opacity:1;vector-effect:none;fill:#3e4a56;fill-opacity:1;fill-rule:nonzero;stroke:none;stroke-width:3.99999976;stroke-linecap:butt;stroke-linejoin:miter;stroke-miterlimit:4;stroke-dasharray:none;stroke-dashoffset:0;stroke-opacity:1;color-rendering:auto;image-rendering:auto;shape-rendering:auto;text-rendering:auto;enable-background:accumulate" />
    </g>
    <path
       inkscape:connector-curvature="0"
       id="path1025"
       d="m 78.114053,13.379642 c -28.84332,0 -52.2478,23.404506 -52.2478,52.247835 0,28.84332 23.40448,52.247823 52.2478,52.247823 28.843317,0 52.247807,-23.404503 52.247807,-52.247823 0,-28.843329 -23.40449,-52.247835 -52.247807,-52.247835 z m 0,2.100044 c 27.708387,0 50.147777,22.439411 50.147777,50.147791 0,27.70837 -22.43939,50.147783 -50.147777,50.147783 -27.70835,0 -50.14778,-22.439413 -50.14778,-50.147783 0,-27.70838 22.43943,-50.147791 50.14778,-50.147791 z"
       style="color:#000000;font-style:normal;font-variant:normal;font-weight:normal;font-stretch:normal;font-size:medium;line-height:normal;font-family:sans-serif;font-variant-ligatures:normal;font-variant-position:normal;font-variant-caps:normal;font-variant-numeric:normal;font-variant-alternates:normal;font-feature-settings:normal;text-indent:0;text-align:start;text-decoration:none;text-decoration-line:none;text-decoration-style:solid;text-decoration-color:#000000;letter-spacing:normal;word-spacing:normal;text-transform:none;writing-mode:lr-tb;direction:ltr;text-orientation:mixed;dominant-baseline:auto;baseline-shift:baseline;text-anchor:start;white-space:normal;shape-padding:0;clip-rule:nonzero;display:inline;overflow:visible;visibility:visible;opacity:1;isolation:auto;mix-blend-mode:normal;color-interpolation:sRGB;color-interpolation-filters:linearRGB;solid-color:#000000;solid-opacity:1;vector-effect:none;fill:#3e4a56;fill-opacity:1;fill-rule:nonzero;stroke:none;stroke-width:3.99999976;stroke-linecap:butt;stroke-linejoin:miter;stroke-miterlimit:4;stroke-dasharray:none;stroke-dashoffset:0;stroke-opacity:1;color-rendering:auto;image-rendering:auto;shape-rendering:auto;text-rendering:auto;enable-background:accumulate" />
  </g>
</svg>
