<?xml version="1.0" encoding="UTF-8" standalone="no"?>
<!-- Created with Inkscape (http://www.inkscape.org/) -->

<svg
   xmlns:dc="http://purl.org/dc/elements/1.1/"
   xmlns:cc="http://creativecommons.org/ns#"
   xmlns:rdf="http://www.w3.org/1999/02/22-rdf-syntax-ns#"
   xmlns:svg="http://www.w3.org/2000/svg"
   xmlns="http://www.w3.org/2000/svg"
   xmlns:sodipodi="http://sodipodi.sourceforge.net/DTD/sodipodi-0.dtd"
   xmlns:inkscape="http://www.inkscape.org/namespaces/inkscape"
   width="159.57924mm"
   height="159.57924mm"
   viewBox="0 0 159.57924 159.57924"
   version="1.1"
   id="svg8"
   inkscape:version="0.92.5 (2060ec1f9f, 2020-04-08)"
   sodipodi:docname="logo.svg">
  <defs
     id="defs2">
    <marker
       inkscape:isstock="true"
       style="overflow:visible"
       id="marker3420"
       refX="0"
       refY="0"
       orient="auto"
       inkscape:stockid="Arrow2Send">
      <path
         transform="matrix(-0.3,0,0,-0.3,0.69,0)"
         d="M 8.7185878,4.0337352 -2.2072895,0.01601326 8.7185884,-4.0017078 c -1.7454984,2.3720609 -1.7354408,5.6174519 -6e-7,8.035443 z"
         style="fill:#ffffff;fill-opacity:1;fill-rule:evenodd;stroke:#ffffff;stroke-width:0.625;stroke-linejoin:round;stroke-opacity:1"
         id="path3418"
         inkscape:connector-curvature="0" />
    </marker>
    <marker
       inkscape:stockid="Arrow2Lend"
       orient="auto"
       refY="0"
       refX="0"
       id="Arrow2Lend"
       style="overflow:visible"
       inkscape:isstock="true">
      <path
         id="path3123"
         style="fill:#ffffff;fill-opacity:1;fill-rule:evenodd;stroke:#ffffff;stroke-width:0.625;stroke-linejoin:round;stroke-opacity:1"
         d="M 8.7185878,4.0337352 -2.2072895,0.01601326 8.7185884,-4.0017078 c -1.7454984,2.3720609 -1.7354408,5.6174519 -6e-7,8.035443 z"
         transform="matrix(-1.1,0,0,-1.1,-1.1,0)"
         inkscape:connector-curvature="0" />
    </marker>
  </defs>
  <sodipodi:namedview
     id="base"
     pagecolor="#ffffff"
     bordercolor="#666666"
     borderopacity="1.0"
     inkscape:pageopacity="0.0"
     inkscape:pageshadow="2"
     inkscape:zoom="0.49497475"
     inkscape:cx="-17.430856"
     inkscape:cy="350.24321"
     inkscape:document-units="mm"
     inkscape:current-layer="layer1"
     showgrid="false"
     inkscape:snap-global="false"
     inkscape:window-width="1920"
     inkscape:window-height="1007"
     inkscape:window-x="0"
     inkscape:window-y="0"
     inkscape:window-maximized="1" />
  <metadata
     id="metadata5">
    <rdf:RDF>
      <cc:Work
         rdf:about="">
        <dc:format>image/svg+xml</dc:format>
        <dc:type
           rdf:resource="http://purl.org/dc/dcmitype/StillImage" />
        <dc:title></dc:title>
      </cc:Work>
    </rdf:RDF>
  </metadata>
  <g
     inkscape:label="Layer 1"
     inkscape:groupmode="layer"
     id="layer1"
     transform="translate(-22.279547,-13.487771)">
    <g
       id="g7022"
       transform="translate(4.2763124,-4.2763124)">
      <circle
         style="opacity:1;fill:#cec6b3;fill-opacity:1;stroke:none;stroke-width:5;stroke-miterlimit:4;stroke-dasharray:none;stroke-dashoffset:0;stroke-opacity:1"
         id="circle6616"
         cx="97.792854"
         cy="97.553703"
         r="79.789619" />
      <path
         id="path6959"
         transform="scale(0.26458333)"
         d="m 366.5293,67.414062 a 301.56707,301.56707 0 0 0 -49.45118,4.501954 l -0.002,0.03906 c -0.34771,27.892347 -0.6813,61.104414 -0.74219,73.804694 -0.0609,12.70034 -0.36946,23.35008 -0.68554,23.66601 -0.31597,0.31597 -1.56131,0.27526 -2.76758,-0.0898 -2.57273,-0.77893 -2.65257,-5.29287 -1.43359,-80.646489 0.11678,-7.217423 0.13951,-9.081499 0.24609,-15.800781 a 301.56707,301.56707 0 0 0 -30.53711,7.705078 c -0.0378,5.197757 -0.1208,11.386907 -0.25195,18.847656 -0.39387,22.394236 -0.61355,43.858876 -0.48633,47.699216 l 0.23242,6.98243 14.61914,14.41992 c 8.03996,7.93092 14.94546,14.81974 15.34375,15.31055 1.10253,1.35794 -0.46692,4.05093 -2.46875,4.23828 -1.41101,0.13115 -5.07942,-3.13607 -17.8125,-15.86914 l -16.03515,-16.03516 0.2207,-16.39648 c 0.1217,-9.01758 0.31856,-31.03645 0.4375,-48.931647 0.0189,-3.034809 0.049,-5.57571 0.0781,-8.130859 a 301.56707,301.56707 0 0 0 -22.10156,8.082031 l 0.11719,25.808595 c 0.10734,23.793 0.50501,44.34377 0.88281,45.66797 0.48903,1.71375 6.01104,7.74518 19.16406,20.93555 10.16327,10.19081 18.78866,19.22498 19.16797,20.07617 0.81551,1.83107 -1.00458,3.94336 -3.40039,3.94336 -1.23991,7e-5 -7.07499,-5.37777 -21.6543,-19.95703 L 247.25,167.32617 l -0.44531,-4.25781 c -0.24567,-2.34195 -0.30636,-23.14934 -0.13477,-46.23828 l 0.17188,-23.185549 a 301.56707,301.56707 0 0 0 -14.26563,6.636719 l 6.98633,7.3457 0.20508,30.90821 c 0.11263,16.9994 0.51103,33.23832 0.88672,36.08593 l 0.68359,5.17579 23.70508,23.70507 19.59375,19.59571 34.91406,-34.91407 c 13.66836,-13.66836 32.1346,-19.45161 49.87695,-17.38281 l 13.01368,-13.01172 0.23437,-35.94336 c 0.12851,-19.76844 0.0891,-36.593406 -0.0859,-37.390622 -0.21354,-0.972057 3.60764,-5.241408 14.0586,-15.785156 a 301.56707,301.56707 0 0 0 -30.11914,-1.25586 z m 36.72851,1.683594 -15.03711,15.044922 -0.0312,38.863282 c -0.0227,29.73188 -0.4272,39.07209 -1.72656,39.76367 -0.63711,0.3394 -4.51359,4.18996 -9.52148,9.37891 7.79015,1.92616 15.27161,5.43565 21.96289,10.50781 l 0.0879,-0.0879 29.15429,-29.56445 -0.16406,-24.5293 c -0.0896,-13.48963 0.18473,-24.87419 0.61133,-25.30078 0.4266,-0.42663 1.98981,-0.71651 3.4707,-0.64258 2.64238,0.13191 2.6926,0.63503 2.79102,26.89258 l 0.10156,26.75586 -29.9082,30.27539 -0.77539,0.78515 c 0.32957,0.31559 0.66602,0.61916 0.99023,0.94336 l 12.29492,12.29493 8.29297,-8.29297 38.03321,-38.03321 -0.43165,-19.73632 c -0.39923,-18.23528 -0.25173,-19.78003 1.92774,-20.32618 1.64372,-0.41227 8.06049,-6.37798 23.81836,-22.076168 a 301.56707,301.56707 0 0 0 -17.89453,-6.830078 c -28.21618,28.214176 -29.05047,28.959666 -30.54883,27.720706 -3.41314,-2.82199 -3.8292,-2.53045 23.89844,-30.257816 A 301.56707,301.56707 0 0 0 426.96484,72.953125 L 402.70508,97.212891 400.73047,95.652344 398.75586,94.091797 421.25,72.003906 a 301.56707,301.56707 0 0 0 -17.99219,-2.90625 z m 91.85938,25.658203 c -6.4097,6.573201 -12.61426,13.062961 -15.99414,16.779301 l -9.36914,10.30078 0.27539,17.95508 0.27343,17.95703 -38.76562,38.6582 0.002,0.002 -9.03906,9.01172 18.66016,18.66016 15.70507,-15.7832 45.32227,-45.54102 -0.33984,-23.83203 c -0.32164,-22.43339 0.20385,-26.86174 3.0332,-25.44336 0.90871,0.45573 5.62267,-3.46387 10.77734,-8.42578 A 301.56707,301.56707 0 0 0 495.11719,94.755859 Z M 226.92383,103.1582 a 301.56707,301.56707 0 0 0 -20.35742,12.07813 c 5.83018,5.55001 7.8557,7.01847 9.09179,7.08008 1.64701,0.082 2.88679,0.69426 3.73828,1.61718 3.04097,3.29624 1.13013,10.53906 -4.86718,11.59571 -4.35542,0.76743 -7.04069,-1.79765 -7.29297,-6.96094 -0.0835,-1.7088 -0.98404,-3.24492 -6.75391,-9.36719 a 301.56707,301.56707 0 0 0 -17.01172,12.54102 l 0.17774,8.72656 39.16211,39.5293 c 35.53674,35.8682 39.07624,39.65413 38.23242,40.90039 -0.51137,0.75534 -1.96154,1.37297 -3.22266,1.37304 -2.0598,1.2e-4 -6.3059,-4.01293 -41.73633,-39.44336 l -39.44531,-39.44335 -0.20117,-6.08008 a 301.56707,301.56707 0 0 0 -20.10547,18.1914 301.56707,301.56707 0 0 0 -3.75976,4.03711 l 44.27539,43.99414 53.84961,53.50782 28.28125,-28.28125 -19.49414,-19.4961 c -20.44759,-20.44762 -23.87892,-24.19263 -24.84376,-27.1289 -0.61568,-1.87363 -1.22418,-15.39379 -1.35351,-30.04297 -0.12926,-14.64915 -0.38159,-30.41845 -0.56055,-35.04297 l -0.32617,-8.4082 z m 295.0664,5.59571 c -0.26381,0.26343 -0.40409,0.39628 -0.67773,0.66992 l -13.67188,13.66992 0.66407,18.07617 c 0.99874,27.19646 2.2614,23.53681 -13.62891,39.50196 -7.38077,7.41286 -27.91067,28.10182 -45.62305,45.9746 l -2.65039,2.67383 20.63477,20.63672 39.33203,-39.33203 c 42.96884,-42.96884 59.48476,-59.38855 65.82813,-65.01562 a 301.56707,301.56707 0 0 0 -29.13868,-23.50977 c -7.83269,8.30373 -10.40802,11.51804 -11.08203,13.87695 -1.25389,4.38709 -3.50462,6.48821 -6.94531,6.48828 -3.78357,-1.1e-4 -5.72063,-2.15466 -5.7207,-6.36328 0,-3.927 2.18411,-6.64142 5.74023,-7.13476 1.66878,-0.23055 4.65607,-2.73921 12.44727,-10.38868 a 301.56707,301.56707 0 0 0 -15.50782,-9.82421 z m 53.73243,40.13867 c -4.49953,5.24186 -17.4376,18.42468 -49.28125,50.49023 l -52.32227,52.6836 2.43359,2.87109 2.43165,2.87305 58.02539,-58.02735 45.01757,-45.01758 a 301.56707,301.56707 0 0 0 -6.30468,-5.87304 z m -402.11914,6.30469 39.52148,39.52148 c 36.70707,36.70704 39.48815,39.66154 39.06836,41.51563 -0.34545,1.52515 -0.96946,1.99804 -2.64844,1.99804 -1.92571,0 -6.95826,-4.72246 -40.64844,-38.14648 -28.4265,-28.20197 -38.52744,-38.65698 -38.75195,-40.10352 -0.17008,-1.09621 0.52405,-2.57834 1.57813,-3.37109 z m 411.17968,2.47851 -60.80859,60.8086 -44.20313,44.20507 17.97071,17.97266 c 14.70194,-14.47567 37.23853,-36.80597 59.31445,-58.79492 l 45.13086,-44.95313 a 301.56707,301.56707 0 0 0 -17.4043,-19.23828 z m -436.6875,6.66211 a 301.56707,301.56707 0 0 0 -20.10742,24.38281 c 3.12983,-0.0571 7.24355,-0.0494 11.64844,0.0391 l 16.23633,0.32617 35.24218,35.24218 c 36.64286,36.64286 36.91611,36.96081 34.00977,39.86719 -3.03625,3.03625 -3.94776,2.25354 -39.33789,-33.88086 l -33.61719,-34.32617 -11.76758,-0.38086 c -6.4727,-0.2109 -11.99169,-0.1608 -12.26367,0.11133 -0.27212,0.27213 21.14408,22.13235 47.58985,48.57813 l 43.85351,43.85351 26.16406,-26.16211 -54.17382,-54.17383 z m 458.16407,17.88672 -60.35938,60.6582 -42.86133,43.07422 14.49805,14.49805 10.38281,-10.4961 39.91406,-40.34375 34.07618,-0.15625 34.07617,-0.15039 6.9707,-6.9707 a 301.56707,301.56707 0 0 0 -10.88672,-21.44141 c -2.8261,3.17386 -4.78718,5.58421 -4.78711,6.03711 -1.5e-4,2.04299 -3.28923,4.96203 -6.16601,5.46875 -4.98815,0.87886 -8.33237,-3.65745 -6.30469,-8.55273 1.22804,-2.96527 5.27899,-5.38992 7.30859,-4.375 0.56852,0.28422 2.53722,-1.09813 6.41407,-4.53516 a 301.56707,301.56707 0 0 0 -22.27539,-32.71484 z m -485.69532,16.76562 a 301.56707,301.56707 0 0 0 -9.20898,14.53907 c 3.74789,3.38895 5.22408,4.32293 6.05078,4.24609 2.56921,-0.23887 6.20657,3.53259 6.35937,6.5957 0.1236,2.47514 -3.11582,6.58639 -5.57421,7.07618 -3.51787,0.70087 -5.84018,-1.09092 -7.06055,-5.45118 -0.54709,-1.95465 -1.0755,-3.25301 -3.66992,-6.31836 a 301.56707,301.56707 0 0 0 -10.935549,21.6543 c 5.390439,1.25711 7.379379,4.16904 5.884769,8.64453 -1.4182,4.2466 -4.104044,5.81771 -8.082035,4.72656 -1.46143,-0.40093 -2.216182,-0.78483 -2.894531,-1.88671 a 301.56707,301.56707 0 0 0 -9.679688,26.48632 c 1.039937,-0.0518 2.082555,-0.10383 3.253906,-0.14843 8.895232,-0.3394 28.737048,-0.76972 44.091798,-0.95703 l 27.91601,-0.33985 20.31641,20.3418 16.08985,16.11133 21.21093,-21.21094 -62.94726,-62.94531 c -13.38902,-13.38898 -22.54875,-22.56556 -31.1211,-31.16407 z m 21.03516,47.68946 c 2.50611,0.0564 7.51838,4.94611 23.65234,21.08008 13.2429,13.24289 21.41091,21.9602 21.8086,23.27343 0.71641,2.3664 -1.00845,4.59758 -3.55664,4.59766 -1.23625,7e-5 -5.99103,-4.36868 -17.50782,-16.08008 -22.87751,-23.26416 -27.98574,-29.21493 -26.70312,-31.10156 0.73018,-1.074 1.32599,-1.7916 2.30664,-1.76953 z M 646,248.87891 c -2.6462,2.91352 -3.78374,4.46859 -3.66797,4.95898 0.37002,1.56801 -3.20036,1.74232 -42.96484,2.11914 l -28.28125,0.26758 -39.28906,39.28906 -9.59961,9.60352 16.26953,16.26758 1.05273,-1.05274 30.74219,-30.74023 28.05469,0.22851 28.05468,0.23047 25.75977,-25.75976 A 301.56707,301.56707 0 0 0 646,248.87891 Z m 8.69531,22.77148 c -16.38584,16.47496 -21.88453,22.40091 -21.5,23.22852 0.31862,0.68568 -12.47047,1.25558 -29.60156,1.31836 l -30.16406,0.11132 -29.85352,29.85352 -0.16601,0.16601 4.71093,4.7129 c 4.98051,4.98051 8.90194,10.60186 11.79297,16.58984 0.44546,-0.41847 0.98117,-0.93161 1.38867,-1.31055 l 9.53125,-8.85351 37.35157,-0.125 37.35156,-0.125 16.66211,-17.2793 c 1.31864,-1.36755 2.73476,-2.80395 4.12109,-4.2207 a 301.56707,301.56707 0 0 0 -11.625,-44.06641 z m -273.96484,1.18164 a 56.354362,56.354362 0 0 0 -45.32227,22.97461 56.354362,56.354362 0 0 0 -19.95312,-3.7207 56.354362,56.354362 0 0 0 -55.89063,49.52344 56.354362,56.354362 0 0 0 -43.19922,54.73437 56.354362,56.354362 0 0 0 48.21875,55.69141 c 0.82829,0.19389 1.63303,0.36678 2.38282,0.49804 1.80805,0.31673 45.00365,0.48792 95.99023,0.38282 88.85214,-0.18331 93.01107,-0.30023 100.16602,-2.80469 h 0.002 c 1.85567,-0.64951 4.28472,-1.82032 6.78125,-3.20703 a 56.354362,56.354362 0 0 0 35.74414,-52.44141 56.354362,56.354362 0 0 0 -56.35547,-56.35351 56.354362,56.354362 0 0 0 -10.34765,0.99414 l -2.74805,-0.29297 a 56.354362,56.354362 0 0 0 0.88672,-9.62305 56.354362,56.354362 0 0 0 -56.35547,-56.35547 z m -226.93945,11.75195 -29.68555,0.36719 c -15.54244,0.192 -34.318507,0.41768 -44.025392,0.53125 a 301.56707,301.56707 0 0 0 -4.652344,17.17383 c 2.068838,-0.0227 4.122025,-0.0439 6.181641,-0.0723 24.743205,-0.33751 29.930595,-0.76208 35.941405,-2.94336 3.8637,-1.40197 8.74562,-2.89395 10.84961,-3.3125 l 3.82813,-0.75976 17.17382,17.16406 c 15.25066,15.24204 17.09401,17.34426 16.46094,18.76563 -1.82653,4.10128 -3.28273,3.13441 -19.69922,-13.04688 l -15.63086,-15.40429 -8.07812,2.25976 c -7.75283,2.17055 -11.07987,2.40852 -48.146486,2.90625 a 301.56707,301.56707 0 0 0 -5.066406,37.48828 c 33.731262,-0.15496 79.267462,0.0684 79.859372,0.66016 0.54754,0.5475 0.91686,1.81283 0.82422,2.81055 -0.13682,1.47261 -11.36818,1.8704 -59.708983,2.11914 -8.325317,0.0427 -15.180071,0.0721 -21.341797,0.0918 a 301.56707,301.56707 0 0 0 2.212891,57.63477 c 6.460686,-0.12435 15.133893,-0.25096 24.117187,-0.33789 22.298042,-0.21544 26.715622,-0.0279 28.117192,1.56054 0.0934,0.10583 0.17503,0.21726 0.24609,0.33594 l 1.29297,2.16211 -4.91211,0.33789 c -2.70149,0.18671 -16.83726,0.58229 -31.414064,0.87891 -6.217738,0.12661 -11.777711,0.25724 -16.722656,0.3789 a 301.56707,301.56707 0 0 0 26.189453,84.70313 c 2.003827,0.0983 4.284537,0.16148 6.804687,0.16601 l 13.9668,0.0254 39.78711,-39.78711 30.4082,-30.41016 -12.27539,-12.27539 c -4.60354,-4.60354 -8.3027,-9.7568 -11.12109,-15.23828 l -19.9043,19.90234 -27.22266,27.22461 -2.29883,-2.29883 -2.29882,-2.29687 27.44726,-27.00195 c 11.10803,-10.92843 17.69887,-17.48516 21.58789,-21.56055 -8.26722,-21.6259 -3.67404,-46.96073 13.81055,-64.44531 l 11.77539,-11.77735 -15.22461,-15.22461 z m 513.48046,38.09961 -19.87109,19.8711 -30.47461,0.3164 c -16.76028,0.17424 -33.31201,0.34004 -36.7832,0.36914 l -6.3125,0.0527 -11.19336,10.93555 c 7.28598,21.19079 2.45313,45.55663 -14.51563,62.52539 l -34.9082,34.90625 21.90625,22.25976 h 0.002 c 12.73138,12.93619 23.35483,23.72912 23.60938,23.98242 0.63915,0.63617 49.49498,1.05319 62.41015,0.53321 l 10.53516,-0.42383 6.66602,6.66601 a 301.56707,301.56707 0 0 0 9.07226,-19.24414 l -1.46094,-0.0156 c -6.29019,-0.0677 -11.68878,-0.37433 -11.99609,-0.68164 -0.30765,-0.30766 -0.47381,-1.49632 -0.36719,-2.64258 0.1697,-1.82324 1.85819,-2.06094 13.49414,-1.90039 l 2.31836,0.0312 A 301.56707,301.56707 0 0 0 659.75,449.45703 c -9.67654,0.21921 -17.41096,0.38582 -27.2168,0.62109 -42.5464,1.01957 -43.87251,1.00877 -44.53125,-0.30859 -0.30425,-0.60858 -0.37754,-1.88222 -0.16211,-2.83398 0.29745,-1.31418 2.23185,-1.74438 8.04688,-1.78516 4.21028,-0.0302 19.42525,-0.36945 33.81055,-0.75391 8.88502,-0.23735 20.69296,-0.4506 31.58593,-0.5957 a 301.56707,301.56707 0 0 0 5.3711,-25.48633 c -43.12759,0.2744 -110.36522,0.0662 -110.94727,-0.51562 -0.45033,-0.45037 -0.49766,-1.54766 -0.10156,-2.43555 0.89257,-2.00432 4.12353,-2.09167 88.44336,-2.37109 l 23.50195,-0.0781 a 301.56707,301.56707 0 0 0 2.75391,-62.45508 c -2.40091,0.28838 -4.76104,-0.72839 -5.91407,-3.51171 -1.18851,-2.86946 -0.32842,-6.90802 1.92969,-9.16602 0.44413,-0.44103 1.56094,-0.96335 2.82031,-1.38477 a 301.56707,301.56707 0 0 0 -1.86914,-13.71289 z m -497.20312,91.31446 2.12109,2.12109 2.1211,2.12305 -23.78125,23.78125 c -22.82344,22.82343 -23.81825,23.93562 -24.6875,27.61718 -0.96492,4.08707 -3.17151,5.93797 -7.40821,6.2129 -3.02774,0.19653 -6.16315,-2.99538 -6.00781,-6.11719 0.15345,-3.07295 4.4904,-7.54169 7.08399,-7.30078 1.65698,0.15458 5.505,-3.38388 26.25,-24.12891 z m 383.51562,13.78515 c 0.13098,0.007 0.26087,0.0255 0.39258,0.0547 0.91412,0.20221 5.76666,4.78861 11.45508,10.5293 9.48053,9.56795 21.28341,22.33901 21.05664,23.35351 -0.44424,1.98958 -1.81794,2.48577 -4.46875,1.60938 -3.03258,-1.00248 -30.94197,-28.49853 -31.64844,-31.17969 -0.56101,-2.12935 1.24821,-4.46753 3.21289,-4.36719 z m -359.67382,6.1875 -31.375,31.42578 -40.74805,40.8125 -17.81641,0.0937 -2.58203,0.0137 a 301.56707,301.56707 0 0 0 17.16797,29.50195 l 11.29688,-0.125 46.18554,-46.08203 36.79492,-36.71485 z m 340.62109,12.8711 c 0.26423,8.5e-4 0.55591,0.0188 0.87891,0.0488 1.62088,0.15043 6.01741,4.23424 20.55468,19.0879 l 18.49219,18.89453 29.35156,0.23828 c 22.10026,0.18028 29.4153,0.44173 31.67969,2.64062 h 0.002 c 0.88608,0.86049 0.99797,2.01873 0.91993,3.58399 -0.12548,2.51255 -0.27165,2.55659 -4.25977,1.29687 -2.27191,-0.71758 -15.94949,-1.26021 -30.39258,-1.20703 -14.44286,0.0533 -27.57443,-0.30782 -29.18164,-0.80078 l -0.0117,-0.0117 c -2.32441,-0.7132 -6.75323,-4.72589 -21.64453,-19.61719 -16.07799,-16.07799 -18.72258,-19.03868 -18.72265,-20.94726 0.01,-2.43961 0.4844,-3.21303 2.33398,-3.20703 z m -26.91406,10.41406 -28.35157,28.35352 49.78321,49.7832 49.99414,49.99414 a 301.56707,301.56707 0 0 0 3.76953,-3.41016 301.56707,301.56707 0 0 0 21.73633,-24.79101 c -1.56227,-0.13153 -3.88501,-0.0609 -6.95508,-0.0254 l -7.09766,0.082 -38.72851,-38.72852 -38.72656,-38.72656 1.29492,-2.16211 c 0.71225,-1.18802 1.83901,-2.28812 2.5039,-2.44531 0.82504,-0.19503 13.19726,11.70311 38.94336,37.44922 l 37.73242,37.73437 4.2461,0.46094 c 2.3345,0.25323 7.19906,0.52638 10.81055,0.60937 0.17952,0.004 0.30839,0.004 0.47851,0.008 a 301.56707,301.56707 0 0 0 10.10156,-13.86329 c -4.30386,-4.72871 -4.98462,-5.1598 -7.37109,-4.66015 -3.85391,0.80666 -7.5735,-3.20077 -7.04883,-7.59375 0.21884,-1.83069 0.78913,-3.71885 1.26758,-4.19727 0.47849,-0.47849 2.36658,-1.05077 4.19727,-1.26953 3.85164,-0.46004 6.9054,2.00509 7.63867,6.16797 0.34847,1.97749 1.3586,3.3454 4.71875,6.18359 a 301.56707,301.56707 0 0 0 12.48242,-20.9375 l -5.73047,-5.73046 -26.24023,0.10546 c -14.43236,0.0582 -31.09572,-0.04 -37.02735,-0.2207 l -10.7832,-0.33008 -24.33008,-24.43359 z m -289.66797,0.75391 -37.03906,37.1875 -46.39844,46.58593 -11.38867,0.22657 a 301.56707,301.56707 0 0 0 23.09179,28.7832 l 30.57422,-30.57227 61.68555,-61.68554 z m 256.36719,32.54882 -25.57813,25.57813 c 2.89644,3.82477 14.79154,15.96341 47.43555,48.60742 l 48.77344,48.77344 -0.35938,-7.18164 c -0.19691,-3.94927 -0.49788,-9.64696 -0.66992,-12.66211 l -0.31445,-5.48438 -29.84961,-29.9375 c -25.77665,-25.85344 -30.1588,-29.95304 -32.11524,-30.05078 -2.96666,-0.14778 -5.00991,-3.28266 -5.00976,-7.68555 -8e-5,-3.45116 0.0717,-3.54392 3.6582,-4.81445 4.56465,-1.61684 8.09768,0.19789 9.34375,4.80078 0.77322,2.85665 4.26224,6.6011 31.40234,33.73047 l 30.53125,30.51758 -0.17968,7.96484 c -0.099,4.38112 -0.0901,11.2137 0.0195,15.1836 l 0.0254,0.95898 a 301.56707,301.56707 0 0 0 22.41601,-18.76758 l -49.41601,-49.41601 z m -223.11719,0.70118 -61.68555,61.68554 -31.03125,31.03321 a 301.56707,301.56707 0 0 0 20.6875,18.20312 c 17.69881,-18.06142 42.44808,-43.10433 60.75196,-61.4082 l 30.375,-30.41602 z m -36.58399,19.61328 -52.32617,52.32617 -12.04687,12.04687 a 301.56707,301.56707 0 0 0 5.375,5.93946 l 12.33008,-12.33008 52.32617,-52.32617 -2.83008,-2.82813 z m 60.97071,4.77343 -36.69727,36.77735 c -18.45536,18.49818 -38.16641,38.31124 -53.99023,54.24414 a 301.56707,301.56707 0 0 0 25.48242,17.76172 l -0.23633,-16.45508 43.95508,-43.95508 34.92969,-34.92969 z m 167.61523,6.0254 -21.21289,21.21289 21.97266,22.01562 c 17.69223,17.72731 22.76531,23.22313 22.99609,24.91016 0.68096,4.97677 0.83482,58.22197 0.16992,58.88672 -0.75016,0.75004 -4.42184,-0.0448 -5.58593,-1.20899 -0.36359,-0.36359 -0.58633,-9.88881 -0.49414,-21.16601 0.0922,-11.27728 -0.12511,-23.90312 -0.48243,-28.0586 l -0.64843,-7.55469 -21.88477,-21.88476 -20.99023,-20.99024 -11.77735,11.7754 c -17.05788,17.05787 -41.59321,21.86048 -62.86133,14.4082 l -22.19336,22.19336 c -17.51743,17.51743 -27.41942,27.94217 -27.83203,29.30468 -0.35111,1.1641 -1.9782,3.03181 -3.61523,4.1504 -5.54823,3.79502 -11.89353,-0.0447 -10.57031,-6.39649 0.49236,-2.36421 1.16604,-3.15 3.86523,-4.50976 1.79781,-0.90558 3.8358,-1.27852 4.52734,-0.83008 1.17982,0.76346 10.77174,-8.40658 48.91016,-46.84766 -5.74503,-2.85917 -11.14309,-6.67044 -15.94336,-11.4707 l -4.71289,-4.71289 -27.03516,27.0332 -36.41406,36.41602 -0.38281,5.63086 c -0.17953,2.6327 -0.38268,11.81925 -0.5,21.69531 a 301.56707,301.56707 0 0 0 71.30469,20.44531 L 321.77148,650.5 c -0.0491,-19.78518 0.20744,-36.26986 0.57032,-36.63281 0.36283,-0.36284 1.63577,-0.52198 2.82617,-0.35157 0.24189,0.034 0.45674,0.12624 0.64844,0.32618 1.34203,1.39676 1.52384,8.05549 1.55468,37.06836 l 0.0195,16.13476 a 301.56707,301.56707 0 0 0 59.88868,2.44531 c 0.0265,-8.74938 0.0606,-18.33451 0.11914,-31.34179 0.21127,-46.96789 0.43338,-51.6742 2.49023,-52.29688 1.24286,-0.37644 2.65643,-0.28689 3.14063,0.19727 0.7977,0.79771 0.86647,25.10214 0.26367,83.22851 a 301.56707,301.56707 0 0 0 34.75195,-4.83203 c 0.0839,-5.9839 0.16193,-12.3737 0.22656,-19.11328 l 0.42383,-44.125 -11.72265,-11.94141 c -12.22171,-12.4532 -13.61527,-14.68427 -9.73438,-15.56445 1.74229,-0.3953 3.60816,1.1246 15.23047,12.41016 l 13.24414,12.86133 -0.23828,6.5039 c -0.4105,11.2681 -0.90296,36.6024 -1.20899,57.47461 a 301.56707,301.56707 0 0 0 18.00977,-4.31836 c -0.10356,-6.91975 0.22972,-8.02851 1.49023,-9.28906 0.90966,-0.90962 1.81457,-0.74208 3.13672,0.58008 0.92017,0.92016 1.44949,2.88188 1.73243,6.73242 a 301.56707,301.56707 0 0 0 27.5664,-9.99023 c -1.60928,-1.76319 -1.95074,-2.97776 -1.52539,-5.01954 1.50966,-7.24811 12.00805,-6.84227 13.06836,-0.3496 a 301.56707,301.56707 0 0 0 18.66406,-9.4668 c -5.73456,-0.43763 -8.36574,-7.06395 -4.19726,-11.23242 3.0232,-3.02325 6.78545,-2.46062 9.47851,1.41796 0.73633,1.06046 2.07767,2.80646 3.50977,4.59961 a 301.56707,301.56707 0 0 0 14.12109,-8.82617 L 493.332,571.80078 Z m -149.57617,12.01367 -33.56055,33.5625 -42.98828,42.98633 0.008,18.43945 a 301.56707,301.56707 0 0 0 26.9004,14.01953 l -0.0273,-26.96875 33.00781,-32.67969 c 16.00691,-15.84665 28.10773,-27.80285 33.20118,-32.81836 z m 152.95508,15.40429 21.43945,21.43946 c 20.54264,20.54264 21.43537,21.55361 21.30664,24.13476 -0.12964,2.59998 -0.22796,2.69868 -2.82812,2.82813 -2.58263,0.1285 -3.59206,-0.76393 -24.41797,-21.58985 -18.4156,-18.41559 -21.69731,-22.01834 -21.54492,-23.6582 0.14513,-1.55871 0.74844,-2.0529 3.11132,-2.54492 z"
         style="fill:#3e4a56;fill-opacity:1;stroke-width:3.77952766"
         inkscape:connector-curvature="0" />
    </g>
  </g>
</svg>
